<?xml version="1.0" encoding="UTF-8"?>
<!DOCTYPE svg PUBLIC "-//W3C//DTD SVG 1.1//EN" "http://www.w3.org/Graphics/SVG/1.1/DTD/svg11.dtd">
<svg xmlns="http://www.w3.org/2000/svg" version="1.1" width="448px" height="436px" style="shape-rendering:geometricPrecision; text-rendering:geometricPrecision; image-rendering:optimizeQuality; fill-rule:evenodd; clip-rule:evenodd" xmlns:xlink="http://www.w3.org/1999/xlink">
<g><path style="opacity:1" fill="#fefefe" d="M -0.5,-0.5 C 148.833,-0.5 298.167,-0.5 447.5,-0.5C 447.5,144.833 447.5,290.167 447.5,435.5C 298.167,435.5 148.833,435.5 -0.5,435.5C -0.5,290.167 -0.5,144.833 -0.5,-0.5 Z"/></g>
<g><path style="opacity:1" fill="#ed81c7" d="M 73.5,20.5 C 66.0542,17.6944 58.5542,15.0277 51,12.5C 50.5,91.8326 50.3333,171.166 50.5,250.5C 49.5007,171.002 49.1674,91.3351 49.5,11.5C 57.4846,12.6995 65.1513,15.0328 72.5,18.5C 73.2975,18.9569 73.6309,19.6236 73.5,20.5 Z"/></g>
<g><path style="opacity:1" fill="#c60019" d="M 73.5,20.5 C 74.1667,20.5 74.8333,20.5 75.5,20.5C 82.8033,23.9357 90.47,26.6024 98.5,28.5C 105.54,31.6737 112.873,34.3403 120.5,36.5C 120.833,36.5 121.167,36.5 121.5,36.5C 127.802,39.6022 134.469,41.9356 141.5,43.5C 144.683,45.01 148.016,46.3433 151.5,47.5C 151.833,47.5 152.167,47.5 152.5,47.5C 162.222,51.4075 172.222,54.7408 182.5,57.5C 183.78,58.9313 185.447,59.5979 187.5,59.5C 190.215,61.0719 193.215,62.0719 196.5,62.5C 197.209,63.404 198.209,63.7373 199.5,63.5C 201.509,65.0652 203.843,66.0652 206.5,66.5C 206.833,66.5 207.167,66.5 207.5,66.5C 209.214,67.7384 211.214,68.405 213.5,68.5C 215.214,69.7384 217.214,70.405 219.5,70.5C 222.915,72.2793 226.581,73.6127 230.5,74.5C 230.833,74.5 231.167,74.5 231.5,74.5C 246.111,80.5949 261.111,85.9283 276.5,90.5C 278.936,91.871 281.603,92.871 284.5,93.5C 284.833,93.5 285.167,93.5 285.5,93.5C 288.215,95.0719 291.215,96.0719 294.5,96.5C 295.568,97.4345 296.901,97.7678 298.5,97.5C 301.39,99.733 304.723,101.066 308.5,101.5C 309.568,102.434 310.901,102.768 312.5,102.5C 314.509,104.065 316.843,105.065 319.5,105.5C 319.833,105.5 320.167,105.5 320.5,105.5C 323.54,107.346 326.873,108.679 330.5,109.5C 330.833,109.5 331.167,109.5 331.5,109.5C 335.216,111.405 339.216,112.739 343.5,113.5C 345.89,115.02 348.557,116.02 351.5,116.5C 354.939,118.204 358.605,119.538 362.5,120.5C 362.833,120.5 363.167,120.5 363.5,120.5C 366.939,122.204 370.605,123.538 374.5,124.5C 375.609,124.557 376.609,124.89 377.5,125.5C 382.286,127.599 387.286,129.432 392.5,131C 388.152,132.379 384.152,134.213 380.5,136.5C 378.883,137.038 377.216,137.371 375.5,137.5C 372.654,137.552 370.32,138.552 368.5,140.5C 367.041,140.433 365.708,140.766 364.5,141.5C 362.214,141.595 360.214,142.262 358.5,143.5C 353.695,144.208 349.362,145.875 345.5,148.5C 342.848,148.41 340.515,149.076 338.5,150.5C 336.025,151.131 333.691,152.131 331.5,153.5C 327.923,153.145 324.923,154.145 322.5,156.5C 321.391,156.557 320.391,156.89 319.5,157.5C 316.99,157.927 314.657,158.593 312.5,159.5C 307.418,160.694 302.418,162.194 297.5,164C 294.141,165.047 291.141,166.547 288.5,168.5C 287.833,168.5 287.167,168.5 286.5,168.5C 284.447,168.402 282.78,169.069 281.5,170.5C 280.833,170.833 280.167,171.167 279.5,171.5C 274.297,172.009 269.63,173.676 265.5,176.5C 263.421,176.971 261.421,177.637 259.5,178.5C 253.289,179.346 247.622,181.346 242.5,184.5C 242.167,184.5 241.833,184.5 241.5,184.5C 238.615,184.643 236.282,185.643 234.5,187.5C 233.833,187.5 233.167,187.5 232.5,187.5C 224.47,189.398 216.803,192.064 209.5,195.5C 206.728,195.759 204.395,196.759 202.5,198.5C 201.209,198.263 200.209,198.596 199.5,199.5C 196.848,199.41 194.515,200.076 192.5,201.5C 187.466,202.398 182.799,204.065 178.5,206.5C 177.508,206.328 176.842,206.662 176.5,207.5C 171.085,208.194 166.085,209.86 161.5,212.5C 160.508,212.328 159.842,212.662 159.5,213.5C 155.838,213.723 152.505,214.723 149.5,216.5C 144.676,217.213 140.343,218.88 136.5,221.5C 130.3,222.342 124.633,224.342 119.5,227.5C 114.989,228.376 110.656,229.709 106.5,231.5C 96.621,234.459 86.9543,237.792 77.5,241.5C 71.6186,243.126 65.9519,245.126 60.5,247.5C 57.2613,248.49 53.928,249.49 50.5,250.5C 50.3333,171.166 50.5,91.8326 51,12.5C 58.5542,15.0277 66.0542,17.6944 73.5,20.5 Z"/></g>
<g><path style="opacity:1" fill="#de6db6" d="M 75.5,20.5 C 82.7758,21.979 89.9425,23.979 97,26.5C 98.0299,26.8361 98.5299,27.5028 98.5,28.5C 90.47,26.6024 82.8033,23.9357 75.5,20.5 Z"/></g>
<g><path style="opacity:1" fill="#c954a0" d="M 98.5,28.5 C 104.022,29.2029 109.355,30.5363 114.5,32.5C 116.636,33.6528 118.636,34.9862 120.5,36.5C 112.873,34.3403 105.54,31.6737 98.5,28.5 Z"/></g>
<g><path style="opacity:1" fill="#f2d4f2" d="M 114.5,32.5 C 117.167,32.5 119.833,32.5 122.5,32.5C 122.5,33.5 122.5,34.5 122.5,35.5C 126.534,35.5165 130.201,36.5165 133.5,38.5C 129.374,38.428 125.374,37.7613 121.5,36.5C 121.167,36.5 120.833,36.5 120.5,36.5C 118.636,34.9862 116.636,33.6528 114.5,32.5 Z"/></g>
<g><path style="opacity:1" fill="#d654ab" d="M 121.5,36.5 C 125.374,37.7613 129.374,38.428 133.5,38.5C 136.297,39.9312 138.964,41.5978 141.5,43.5C 134.469,41.9356 127.802,39.6022 121.5,36.5 Z"/></g>
<g><path style="opacity:1" fill="#c966ad" d="M 141.5,43.5 C 144.271,43.4207 146.937,43.9207 149.5,45C 150.756,45.4169 151.423,46.2502 151.5,47.5C 148.016,46.3433 144.683,45.01 141.5,43.5 Z"/></g>
<g><path style="opacity:1" fill="#c760aa" d="M 152.5,47.5 C 156.093,47.641 159.593,48.3076 163,49.5C 169.167,51.6667 175.333,53.8333 181.5,56C 182.056,56.3826 182.389,56.8826 182.5,57.5C 172.222,54.7408 162.222,51.4075 152.5,47.5 Z"/></g>
<g><path style="opacity:1" fill="#c449c6" d="M 182.5,57.5 C 184.167,57.5 185.833,57.5 187.5,57.5C 187.5,58.1667 187.5,58.8333 187.5,59.5C 185.447,59.5979 183.78,58.9313 182.5,57.5 Z"/></g>
<g><path style="opacity:1" fill="#b95db0" d="M 187.5,57.5 C 191.195,59.0655 194.195,60.7322 196.5,62.5C 193.215,62.0719 190.215,61.0719 187.5,59.5C 187.5,58.8333 187.5,58.1667 187.5,57.5 Z"/></g>
<g><path style="opacity:1" fill="#b85093" d="M 199.5,63.5 C 202.491,63.1663 204.824,64.1663 206.5,66.5C 203.843,66.0652 201.509,65.0652 199.5,63.5 Z"/></g>
<g><path style="opacity:1" fill="#d89dd2" d="M 207.5,66.5 C 211.684,66.8509 215.684,67.5176 219.5,68.5C 217.5,68.5 215.5,68.5 213.5,68.5C 211.214,68.405 209.214,67.7384 207.5,66.5 Z"/></g>
<g><path style="opacity:1" fill="#c052b9" d="M 213.5,68.5 C 215.5,68.5 217.5,68.5 219.5,68.5C 219.5,69.1667 219.5,69.8333 219.5,70.5C 217.214,70.405 215.214,69.7384 213.5,68.5 Z"/></g>
<g><path style="opacity:1" fill="#bc62a4" d="M 219.5,70.5 C 222.74,70.7678 225.906,71.4345 229,72.5C 230.03,72.8361 230.53,73.5028 230.5,74.5C 226.581,73.6127 222.915,72.2793 219.5,70.5 Z"/></g>
<g><path style="opacity:1" fill="#af5fa6" d="M 231.5,74.5 C 234.487,74.9978 237.487,75.4978 240.5,76C 251.578,81.139 263.078,85.3056 275,88.5C 276.03,88.8361 276.53,89.5028 276.5,90.5C 261.111,85.9283 246.111,80.5949 231.5,74.5 Z"/></g>
<g><path style="opacity:1" fill="#aa4f96" d="M 276.5,90.5 C 279.917,90.023 282.584,91.023 284.5,93.5C 281.603,92.871 278.936,91.871 276.5,90.5 Z"/></g>
<g><path style="opacity:1" fill="#ac569e" d="M 285.5,93.5 C 288.916,93.5275 291.916,94.5275 294.5,96.5C 291.215,96.0719 288.215,95.0719 285.5,93.5 Z"/></g>
<g><path style="opacity:1" fill="#a96aab" d="M 298.5,97.5 C 300.861,97.6741 303.194,98.0074 305.5,98.5C 306.694,99.2719 307.694,100.272 308.5,101.5C 304.723,101.066 301.39,99.733 298.5,97.5 Z"/></g>
<g><path style="opacity:1" fill="#d1c1e8" d="M 305.5,98.5 C 310.121,100.418 314.788,102.085 319.5,103.5C 317.139,103.326 314.806,102.993 312.5,102.5C 310.901,102.768 309.568,102.434 308.5,101.5C 307.694,100.272 306.694,99.2719 305.5,98.5 Z"/></g>
<g><path style="opacity:1" fill="#9f59af" d="M 312.5,102.5 C 314.806,102.993 317.139,103.326 319.5,103.5C 319.5,104.167 319.5,104.833 319.5,105.5C 316.843,105.065 314.509,104.065 312.5,102.5 Z"/></g>
<g><path style="opacity:1" fill="#9b54a1" d="M 320.5,105.5 C 324.475,105.486 327.808,106.819 330.5,109.5C 326.873,108.679 323.54,107.346 320.5,105.5 Z"/></g>
<g><path style="opacity:1" fill="#994ea2" d="M 331.5,109.5 C 336.026,109.897 340.026,111.23 343.5,113.5C 339.216,112.739 335.216,111.405 331.5,109.5 Z"/></g>
<g><path style="opacity:1" fill="#a164b1" d="M 343.5,113.5 C 346.811,113.307 349.478,114.307 351.5,116.5C 348.557,116.02 345.89,115.02 343.5,113.5 Z"/></g>
<g><path style="opacity:1" fill="#aa5e91" d="M 351.5,116.5 C 354.74,116.768 357.906,117.434 361,118.5C 362.03,118.836 362.53,119.503 362.5,120.5C 358.605,119.538 354.939,118.204 351.5,116.5 Z"/></g>
<g><path style="opacity:1" fill="#a270ae" d="M 363.5,120.5 C 367.764,120.477 371.431,121.81 374.5,124.5C 370.605,123.538 366.939,122.204 363.5,120.5 Z"/></g>
<g><path style="opacity:1" fill="#b97097" d="M 377.5,125.5 C 382.968,126.231 388.302,127.564 393.5,129.5C 393.719,130.675 393.386,131.675 392.5,132.5C 388.55,134.039 384.55,135.372 380.5,136.5C 384.152,134.213 388.152,132.379 392.5,131C 387.286,129.432 382.286,127.599 377.5,125.5 Z"/></g>
<g><path style="opacity:1" fill="#b95874" d="M 375.5,137.5 C 373.491,139.065 371.157,140.065 368.5,140.5C 370.32,138.552 372.654,137.552 375.5,137.5 Z"/></g>
<g><path style="opacity:1" fill="#a54c7d" d="M 364.5,141.5 C 362.898,143.074 360.898,143.741 358.5,143.5C 360.214,142.262 362.214,141.595 364.5,141.5 Z"/></g>
<g><path style="opacity:1" fill="#c89ac0" d="M 358.5,143.5 C 354.994,147.078 350.661,148.744 345.5,148.5C 349.362,145.875 353.695,144.208 358.5,143.5 Z"/></g>
<g><path style="opacity:1" fill="#c06d89" d="M 345.5,148.5 C 343.485,149.924 341.152,150.59 338.5,150.5C 340.515,149.076 342.848,148.41 345.5,148.5 Z"/></g>
<g><path style="opacity:1" fill="#cea4c3" d="M 331.5,153.5 C 329.159,155.851 326.159,156.851 322.5,156.5C 324.923,154.145 327.923,153.145 331.5,153.5 Z"/></g>
<g><path style="opacity:1" fill="#c79abc" d="M 319.5,157.5 C 317.721,159.344 315.388,160.01 312.5,159.5C 314.657,158.593 316.99,157.927 319.5,157.5 Z"/></g>
<g><path style="opacity:1" fill="#c56187" d="M 312.5,159.5 C 304.771,163.104 296.771,166.104 288.5,168.5C 291.141,166.547 294.141,165.047 297.5,164C 302.418,162.194 307.418,160.694 312.5,159.5 Z"/></g>
<g><path style="opacity:1" fill="#bb436e" d="M 286.5,168.5 C 285.22,169.931 283.553,170.598 281.5,170.5C 282.78,169.069 284.447,168.402 286.5,168.5 Z"/></g>
<g><path style="opacity:1" fill="#cf779e" d="M 279.5,171.5 C 275.237,174.006 270.57,175.672 265.5,176.5C 269.63,173.676 274.297,172.009 279.5,171.5 Z"/></g>
<g><path style="opacity:1" fill="#d3789c" d="M 259.5,178.5 C 254.2,181.268 248.533,183.268 242.5,184.5C 247.622,181.346 253.289,179.346 259.5,178.5 Z"/></g>
<g><path style="opacity:1" fill="#de9fbf" d="M 241.5,184.5 C 239.824,186.834 237.491,187.834 234.5,187.5C 236.282,185.643 238.615,184.643 241.5,184.5 Z"/></g>
<g><path style="opacity:1" fill="#d36f97" d="M 232.5,187.5 C 225.33,191.336 217.663,194.002 209.5,195.5C 216.803,192.064 224.47,189.398 232.5,187.5 Z"/></g>
<g><path style="opacity:1" fill="#556ef8" d="M 398.5,430.5 C 390.67,428.755 383.004,426.589 375.5,424C 323.321,406.108 271.321,387.942 219.5,369.5C 217.485,368.076 215.152,367.41 212.5,367.5C 159.087,348.972 105.587,330.305 52,311.5C 51.3828,310.551 51.5494,309.718 52.5,309C 85.617,297.976 118.617,286.81 151.5,275.5C 156.895,274.813 161.895,273.146 166.5,270.5C 205.597,256.474 244.931,242.64 284.5,229C 286.833,228.667 289.167,228.333 291.5,228C 318.339,218.04 345.173,208.207 372,198.5C 375.105,197.633 378.272,197.299 381.5,197.5C 381.5,196.5 381.5,195.5 381.5,194.5C 384.206,194.425 386.873,194.092 389.5,193.5C 392.313,193.452 394.979,192.785 397.5,191.5C 398.5,271.164 398.833,350.831 398.5,430.5 Z"/></g>
<g><path style="opacity:1" fill="#cd6d99" d="M 209.5,195.5 C 207.605,197.241 205.272,198.241 202.5,198.5C 204.395,196.759 206.728,195.759 209.5,195.5 Z"/></g>
<g><path style="opacity:1" fill="#d57bae" d="M 199.5,199.5 C 197.562,201.163 195.228,201.829 192.5,201.5C 194.515,200.076 196.848,199.41 199.5,199.5 Z"/></g>
<g><path style="opacity:1" fill="#aab6fa" d="M 398.5,430.5 C 398.833,350.831 398.5,271.164 397.5,191.5C 394.979,192.785 392.313,193.452 389.5,193.5C 392.239,190.976 395.572,189.976 399.5,190.5C 399.833,270.668 399.499,350.668 398.5,430.5 Z"/></g>
<g><path style="opacity:1" fill="#dd7b9a" d="M 192.5,201.5 C 188.183,203.94 183.517,205.607 178.5,206.5C 182.799,204.065 187.466,202.398 192.5,201.5 Z"/></g>
<g><path style="opacity:1" fill="#dd799c" d="M 176.5,207.5 C 171.784,209.739 166.784,211.405 161.5,212.5C 166.085,209.86 171.085,208.194 176.5,207.5 Z"/></g>
<g><path style="opacity:1" fill="#d6849e" d="M 159.5,213.5 C 156.592,215.605 153.258,216.605 149.5,216.5C 152.505,214.723 155.838,213.723 159.5,213.5 Z"/></g>
<g><path style="opacity:1" fill="#ecabc8" d="M 149.5,216.5 C 145.994,220.078 141.661,221.744 136.5,221.5C 140.343,218.88 144.676,217.213 149.5,216.5 Z"/></g>
<g><path style="opacity:1" fill="#e0809b" d="M 136.5,221.5 C 131.059,223.871 125.392,225.871 119.5,227.5C 124.633,224.342 130.3,222.342 136.5,221.5 Z"/></g>
<g><path style="opacity:1" fill="#e5839d" d="M 106.5,231.5 C 97.3281,236.003 87.6614,239.336 77.5,241.5C 86.9543,237.792 96.621,234.459 106.5,231.5 Z"/></g>
<g><path style="opacity:1" fill="#e688ab" d="M 77.5,241.5 C 73.8482,243.787 69.8482,245.621 65.5,247C 63.8659,247.494 62.1992,247.66 60.5,247.5C 65.9519,245.126 71.6186,243.126 77.5,241.5 Z"/></g>
<g><path style="opacity:1" fill="#9293f6" d="M 166.5,270.5 C 161.895,273.146 156.895,274.813 151.5,275.5C 156.233,273.256 161.233,271.589 166.5,270.5 Z"/></g>
<g><path style="opacity:1" fill="#bcbdf2" d="M 212.5,367.5 C 215.152,367.41 217.485,368.076 219.5,369.5C 216.848,369.59 214.515,368.924 212.5,367.5 Z"/></g>
</svg>
